# xmcd CD database file
#
# Track frame offsets:
#	150
#	16846
#	32838
#	39195
#	58440
#	77152
#	90794
#	106793
#	120212
#	133616
#	144973
#	163950
#	176640
#
# Disc length: 2409 seconds
#
# Revision: 0
# Processed by: cddbd v1.5.2PL0 Copyright (c) Steve Scherf et al.
# Submitted via: CDex 1.51
#
DISCID=9a09670d
DTITLE=Reg Poole - For The Love Of My Country
DYEAR=2006
DGENRE=Country
TTITLE0=For The Love Of My Country
TTITLE1=A Tribute To Slim
TTITLE2=The Man In The Glass (Monologue)
TTITLE3=Halfway Home
TTITLE4=Mount Ida
TTITLE5=The Luggage Van Ahead
TTITLE6=Ode To A Bull
TTITLE7=A Grave Situation (Monologue)
TTITLE8=Long White Cloud
TTITLE9=I Get So Lonely
TTITLE10=I Love The Rodeo
TTITLE11=Two Of You
TTITLE12=Smile (Monologue)
EXTD=YEAR: 2006
EXTT0=
EXTT1=
EXTT2=
EXTT3=
EXTT4=
EXTT5=
EXTT6=
EXTT7=
EXTT8=
EXTT9=
EXTT10=
EXTT11=
EXTT12=
PLAYORDER=
